<svg width="541" height="540" viewBox="0 0 541 540" fill="none" xmlns="http://www.w3.org/2000/svg">
<rect width="540" height="540" transform="translate(0.363281)" fill="#1D1D1D"/>
<path d="M312.021 158.001V177.144C312.021 188.904 321.555 198.438 333.315 198.438H464.215V267.178H343.003C369.603 271.96 395.285 281.312 418.872 294.93L492.812 337.619L480.06 359.707C466.897 382.505 436.41 388.022 416.093 371.282L339.892 308.499L295.68 272.043C291.865 268.898 287.076 267.178 282.132 267.178H257.68C252.736 267.178 247.946 268.898 244.132 272.043L199.92 308.499L123.719 371.282C103.401 388.022 72.9144 382.505 59.752 359.707L47 337.619L120.939 294.93C144.526 281.312 170.208 271.96 196.809 267.178H75.5967V198.438H206.496C218.257 198.438 227.791 188.904 227.791 177.144V158.001L269.396 158L312.021 158.001Z" fill="#00D492"/>
</svg>
